<svg xmlns="http://www.w3.org/2000/svg" viewBox="0 0 136.53 512"><g id="Layer_2" data-name="Layer 2"><g id="Layer_1-2" data-name="Layer 1"><g id="Page-1"><g id="_036---Disconnect" data-name="036---Disconnect"><path id="Shape" d="M93.87,103.17V17.07A17.07,17.07,0,0,0,76.8,0H59.73A17.06,17.06,0,0,0,42.67,17.07v86.1A51.25,51.25,0,0,0,0,153.6v51.2a17.07,17.07,0,0,0,17.07,17.07H34.13V256a8.54,8.54,0,0,0,17.07,0V221.87H85.33V256a8.54,8.54,0,0,0,17.07,0V221.87h17.07a17.06,17.06,0,0,0,17.06-17.07V153.6A51.24,51.24,0,0,0,93.87,103.17ZM59.73,17.07H76.8V102.4H59.73ZM17.07,204.8V153.6A34.13,34.13,0,0,1,51.2,119.47H85.33a34.14,34.14,0,0,1,34.14,34.13v51.2Z"/><path id="Shape-2" data-name="Shape" d="M119.47,290.13H17.07A17.07,17.07,0,0,0,0,307.2v51.2a51.25,51.25,0,0,0,42.67,50.43v86.1A17.06,17.06,0,0,0,59.73,512H76.8a17.07,17.07,0,0,0,17.07-17.07v-86.1a51.24,51.24,0,0,0,42.66-50.43V307.2A17.06,17.06,0,0,0,119.47,290.13ZM76.8,494.93H59.73V409.6H76.8Zm8.53-102.4H51.2A34.13,34.13,0,0,1,17.07,358.4V307.2h102.4v51.2A34.14,34.14,0,0,1,85.33,392.53Z"/></g></g></g></g></svg>