<svg xmlns="http://www.w3.org/2000/svg" viewBox="0 0 543.84 543.84"><g id="Layer_2" data-name="Layer 2"><g id="Capa_1" data-name="Capa 1"><path d="M475.48,274.84h0L398.54,81.63a8,8,0,0,0-10.4-4.47h0L76,201.46a7.86,7.86,0,0,0-3.2,2.54A7.93,7.93,0,0,0,68.52,211V419a8,8,0,0,0,8,8h336a8,8,0,0,0,8-8V305.35L471,285.23A8,8,0,0,0,475.48,274.84ZM404.52,411h-320V219h320ZM202,203l134-53.38a63.66,63.66,0,0,0,45.87,19.78L395.18,203Zm218.52,85.17V210.94a8,8,0,0,0-8-8h-.13l-16.95-42.57a6.74,6.74,0,0,0-.66-1,7.9,7.9,0,0,0-8.36-6.16,47.86,47.86,0,0,1-41.94-18.06,7.92,7.92,0,0,0-10.26-1.8,10.71,10.71,0,0,0-1.13.21L169.55,198.67a7.91,7.91,0,0,0-4.39,4.28H115.5L386.63,95l71,178.36Z"/><path d="M106.23,356.94a47.84,47.84,0,0,1,32.3,32.25,8,8,0,0,0,7.66,5.72,7.16,7.16,0,0,0,1.23-.19,8.27,8.27,0,0,0,1.1.23h192a8.1,8.1,0,0,0,1-.2,7.44,7.44,0,0,0,9-5.48v0a47.84,47.84,0,0,1,32.3-32.3,7.9,7.9,0,0,0,5.49-8.8,9.46,9.46,0,0,0,.23-1.18V283a7.84,7.84,0,0,0-.24-1.19,7.89,7.89,0,0,0-5.49-8.8,47.81,47.81,0,0,1-32.28-32.3,7.89,7.89,0,0,0-8.86-5.49,7.28,7.28,0,0,0-1.13-.22h-192a6.13,6.13,0,0,0-1.19.24,7.9,7.9,0,0,0-8.8,5.48A47.84,47.84,0,0,1,106.23,273a7.9,7.9,0,0,0-5.49,8.8,8,8,0,0,0-.22,1.19v64a8.71,8.71,0,0,0,.22,1.11A7.93,7.93,0,0,0,106.23,356.94Zm10.29-70.75a63.47,63.47,0,0,0,35.25-35.25H337.26a63.49,63.49,0,0,0,35.26,35.25V343.7A63.56,63.56,0,0,0,337.27,379H151.77a63.56,63.56,0,0,0-35.25-35.25Z"/><path d="M244.52,363a48,48,0,1,0-48-48A48,48,0,0,0,244.52,363Zm0-80a32,32,0,1,1-32,32A32,32,0,0,1,244.52,283Z"/><path d="M156.52,327a12,12,0,1,0-12-12A12,12,0,0,0,156.52,327Zm0-16a4,4,0,1,1-4,4A4,4,0,0,1,156.52,311Z"/><path d="M332.52,327a12,12,0,1,0-12-12A12,12,0,0,0,332.52,327Zm0-16a4,4,0,1,1-4,4A4,4,0,0,1,332.52,311Z"/><path d="M271.92,0C122,0,0,122,0,271.92S122,543.84,271.92,543.84s271.92-122,271.92-271.92S421.85,0,271.92,0ZM49.8,271.92C49.8,149.44,149.44,49.8,271.92,49.8a221.06,221.06,0,0,1,144.59,53.73l-313,313A221.06,221.06,0,0,1,49.8,271.92ZM271.92,494A221,221,0,0,1,140,450.48L450.47,140A221,221,0,0,1,494,271.93C494,394.4,394.4,494,271.92,494Z"/></g></g></svg>