<svg xmlns="http://www.w3.org/2000/svg" viewBox="0 0 868 999.6"><defs><style>.cls-1{fill:none;}</style></defs><g id="Layer_2" data-name="Layer 2"><g id="Layer_1-2" data-name="Layer 1"><polygon points="121.4 314.4 101.5 259.5 135.1 166.3 168.6 259.5 149.1 314.3 141.1 311.4 159.5 259.5 135.1 191.6 110.6 259.5 129.4 311.5 121.4 314.4"/><rect x="91.1" y="308.6" width="0.2" height="8.6"/><path d="M691.7,999.6H175.6V969A34.41,34.41,0,0,0,145,934.8l-24.3.1V864.7H87.9V508C38.6,504.5,0,460.8,0,408.5c0-53.8,40.8-98.6,91-99.8h86.7v8.6H91.1c-45.4,1.1-82.5,42-82.5,91.2s37.1,90.1,82.7,91.2l4.2.1,1,4.1V856.1h32.8v70.2h16.2c22.2,2.5,38.7,20.8,38.7,42.7v22H683.1V969c0-17.6,12.7-42.5,41-42.5l14.4-.1V856h32.8V500l4-.2c47-1.1,84.1-42,84.1-91.2s-37.2-90.2-82.8-91.2H688.8v-8.6h87.9c50.4,1.1,91.3,45.8,91.3,99.8,0,52.8-39.3,96.8-88.1,99.6V864.7H747.1v70.2l-22.9.3c-23.7,0-32.5,20.8-32.5,33.9v30.5Z"/><polygon points="718.9 314.4 699.2 259.4 732.8 166.3 766.3 259.4 746.8 314.3 738.8 311.4 757.2 259.4 732.8 191.5 708.3 259.4 727 311.5 718.9 314.4"/><path d="M774.2,506.9l-.7-5.9,2.6-1c16.2-1.5,28.1-15.6,28.1-32.7,0-17.3-12.4-31.6-28.2-32.7l.4-5.7c18.8,1.3,33.6,18.2,33.6,38.4a39.31,39.31,0,0,1-15.1,31.4c37.7-9.8,66-46.8,66-90.1,0-43-27.8-79.7-65-89.8a39.2,39.2,0,0,1,14.8,31.1c0,20.2-14.7,37.1-33.6,38.4l-.4-5.7c15.8-1.2,28.2-15.5,28.2-32.7s-12.1-31.4-28.3-32.7l-2.3-.2-.8-5.6,3.2-1.1c49.5,1,89.8,45.2,89.8,98.3s-40.2,97.2-89.7,98.3Z"/><path d="M91.2,506.8c-49.5-1.1-89.7-45.2-89.7-98.3s40.3-97.3,89.8-98.3l3.2-.1-.5,5.6-2.5,1.4c-16.1,1.3-28.3,15.4-28.3,32.8,0,17.2,12.4,31.6,28.3,32.7l-.4,5.7c-18.8-1.3-33.5-18.2-33.5-38.4,0-12.8,5.7-24.2,14.8-31.1-37.2,10.1-65,46.8-65,89.8,0,43.3,28.2,80.2,65.9,90.1a39.37,39.37,0,0,1-15-31.4c0-20.1,14.7-37,33.5-38.4l.4,5.7C76.4,435.7,64,450.1,64,467.3S76,498.5,91.8,500l2.8.3-.5,6-2.9.5Z"/><path d="M304.9,883.1H281a2.9,2.9,0,0,1-2.9-2.9V856.3a2.82,2.82,0,0,1,2.9-2.8h23.9a2.88,2.88,0,0,1,2.9,2.8v23.9a2.9,2.9,0,0,1-2.9,2.9Zm-21-5.8H302V859.1H283.9v18.2Z"/><path d="M375,950.9H351.1a2.9,2.9,0,0,1-2.9-2.9V924.1a2.88,2.88,0,0,1,2.9-2.8H375a2.88,2.88,0,0,1,2.9,2.8V948a2.9,2.9,0,0,1-2.9,2.9Zm-21-5.7h18.1V927H354v18.2Z"/><path d="M234.7,815H210.9a2.9,2.9,0,0,1-2.9-2.9V788.2a2.88,2.88,0,0,1,2.9-2.8h23.8a2.88,2.88,0,0,1,2.9,2.8v23.9a2.9,2.9,0,0,1-2.9,2.9Zm-21-5.7h18.1V791.1H213.7v18.2Z"/><path d="M234.8,950.9H210.9A2.9,2.9,0,0,1,208,948V924.1a2.88,2.88,0,0,1,2.9-2.8h23.9a2.88,2.88,0,0,1,2.9,2.8V948a3,3,0,0,1-2.9,2.9Zm-21-5.7h18.1V927H213.8v18.2Z"/><path d="M514.9,950.9H491.1a2.9,2.9,0,0,1-2.9-2.9V924.1a2.88,2.88,0,0,1,2.9-2.8h23.8a2.88,2.88,0,0,1,2.9,2.8V948a2.9,2.9,0,0,1-2.9,2.9ZM494,945.2h18.1V927H494v18.2Z"/><path d="M585.1,883.1H561.3a2.9,2.9,0,0,1-2.9-2.9V856.3a2.82,2.82,0,0,1,2.9-2.8h23.8a2.8,2.8,0,0,1,2.8,2.8v23.9a2.82,2.82,0,0,1-2.8,2.9Zm-21-5.8h18.1V859.1H564.1v18.2Z"/><path d="M655.3,815H631.4a2.9,2.9,0,0,1-2.9-2.9V788.2a2.88,2.88,0,0,1,2.9-2.8h23.9a2.88,2.88,0,0,1,2.9,2.8v23.9a2.9,2.9,0,0,1-2.9,2.9Zm-21-5.7h18.1V791.1H634.3v18.2Z"/><path d="M655.2,950.9H631.4a2.9,2.9,0,0,1-2.9-2.9V924.1a2.88,2.88,0,0,1,2.9-2.8h23.9a2.88,2.88,0,0,1,2.9,2.8V948a3.06,3.06,0,0,1-3,2.9Zm-21-5.7h18.2V927H634.3v18.2Z"/><path d="M775.6,861.7H689.9a2.9,2.9,0,0,1-2.9-2.9v-546a2.88,2.88,0,0,1,2.9-2.8h85.7a2.88,2.88,0,0,1,2.9,2.8v546a3,3,0,0,1-2.9,2.9ZM692.7,856h80V315.8h-80V856Z"/><path d="M178,861.8H92.2a2.9,2.9,0,0,1-2.9-2.9v-546a2.82,2.82,0,0,1,2.9-2.8H178a2.88,2.88,0,0,1,2.9,2.8v546a2.9,2.9,0,0,1-2.9,2.9Zm-82.9-5.7h80.1V315.8H95.1V856.1Z"/><polygon points="138 312.7 132.3 312.7 132.3 179.7 138 179.7 138 312.7"/><polygon points="163.5 262.3 106 262.3 106 256.6 163.5 256.6 163.5 262.3"/><path d="M145.5,933.4H125a2.9,2.9,0,0,1-2.9-2.9V858.9a2.88,2.88,0,0,1,2.9-2.8h20.5a2.88,2.88,0,0,1,2.9,2.8v71.6a2.84,2.84,0,0,1-2.9,2.9Zm-17.6-5.7h14.8V861.8H127.9v65.9Z"/><path d="M687.4,998.2H179.9a2.9,2.9,0,0,1-2.9-2.9V969a35.73,35.73,0,0,0-32.1-35.7l.6-5.7a41.38,41.38,0,0,1,37.3,41.3v23.5H684.6V969a41.38,41.38,0,0,1,37.5-41.2l.6,5.7a35.8,35.8,0,0,0-32.3,35.6v26.3a3,3,0,0,1-3,2.8Z"/><path d="M673.4,983H193.9a2.9,2.9,0,0,1-2.9-2.9V969a50.05,50.05,0,0,0-45.9-49.7l.4-5.7A55.81,55.81,0,0,1,196.7,969v8.3H670.4V969a55.81,55.81,0,0,1,51.2-55.4l.4,5.7A50.12,50.12,0,0,0,676.1,969v11.1a2.74,2.74,0,0,1-2.7,2.9Z"/><path d="M180.9,361.8H89.4V332.6h91.5v29.2Zm-85.8-5.7h80.1V338.3H95.1v17.8Z"/><polygon points="147.6 436.6 142.9 433.3 175.1 386.8 174.8 367.9 137.4 421.8 132.7 418.5 180.3 349.8 180.3 388.5 147.6 436.6"/><polygon points="89.8 520 89.8 481.4 122.5 433.2 127.2 436.5 95 483 95.4 501.9 132.8 448 137.5 451.2 89.8 520"/><polygon points="147.6 588.4 142.9 585.2 175.1 538.7 174.8 519.8 137.4 573.7 132.7 570.4 180.3 501.7 180.3 540.4 147.6 588.4"/><polygon points="89.8 671.9 89.8 633.3 122.5 585.2 127.2 588.4 95 634.9 95.4 653.9 132.7 600 137.4 603.2 89.8 671.9"/><polygon points="147.8 738.1 143.1 734.8 175.1 689.2 174.8 670.1 137.4 723.3 132.7 720 180.3 652.3 180.3 690.8 147.8 738.1"/><polygon points="89.8 820.5 89.8 782 122.4 734.8 127 738.1 95 783.6 95.4 802.7 132.7 749.6 137.4 752.9 89.8 820.5"/><path d="M180.9,837.9H89.4V808.7h91.5v29.2Zm-85.8-5.7h80.1V814.4H95.1v17.8Z"/><path d="M180.3,820.5l-90-128.1-.5-40.2,90,128.1.5,40.2ZM95.5,670.3v20.5l79.1,111.7V782L95.5,670.3Z"/><path d="M180.3,671.9,90.3,542l-.5-40.3,90,129.9.5,40.3Zm-84.8-152v20.4l79.1,113.3V633.2L95.5,519.9Z"/><path d="M180.3,520l-90-129.9-.5-40.3,90,129.9.5,40.3ZM95.5,368.1v20.4l79.1,113.3V481.4L95.5,368.1Z"/><path d="M742.8,933.4H722.3a2.9,2.9,0,0,1-2.9-2.9V858.8a2.88,2.88,0,0,1,2.9-2.8h20.5a2.88,2.88,0,0,1,2.9,2.8v71.7a2.84,2.84,0,0,1-2.9,2.9Zm-17.6-5.7H740v-66H725.2v66Z"/><polygon points="687.5 520 687.5 481.3 720.2 433.2 724.9 436.5 692.7 482.9 693.1 501.9 730.4 447.9 735.1 451.2 687.5 520"/><polygon points="745.4 436.5 740.7 433.2 772.8 386.8 772.5 367.8 735.1 421.7 730.4 418.5 778 349.7 778 388.4 745.4 436.5"/><polygon points="745.5 738.1 740.8 734.8 772.8 689.1 772.5 670.1 735.1 723.3 730.4 720 778 652.2 778 690.8 745.5 738.1"/><polygon points="687.5 820.7 687.5 782.2 720.1 734.8 724.8 738 692.7 783.8 693.1 802.9 730.4 749.6 735.1 752.8 687.5 820.7"/><polygon points="687.5 671.9 687.5 633.2 720.2 585.2 724.9 588.4 692.7 634.9 693.1 653.8 730.4 599.9 735.1 603.2 687.5 671.9"/><polygon points="745.4 588.4 740.7 585.1 772.8 538.7 772.5 519.7 735.2 573.6 730.5 570.4 778 501.7 778 540.3 745.4 588.4"/><polygon points="735.6 312.6 729.9 312.6 729.9 179.6 735.6 179.6 735.6 312.6"/><polygon points="761.8 262.3 704.4 262.3 704.4 256.6 761.8 256.6 761.8 262.3"/><path d="M778.4,361.7H686.9V332.5h91.5v29.2ZM692.6,356h80.1V338.2H692.6V356Z"/><path d="M778,520,688,390.1l-.5-40.3,90,129.9L778,520ZM693.2,368v20.5l79.1,113.3V481.3L693.2,368Z"/><path d="M778,671.9,688,542l-.5-40.3,90,129.9.5,40.3Zm-84.8-152v20.4l79.1,113.3V633.2L693.2,519.9Z"/><path d="M778,820.7,688,692.4l-.5-40.2,90,128.3.5,40.2ZM693.2,670.3v20.5l79.1,111.9V782.2L693.2,670.3Z"/><path d="M778.4,837.8H686.9V808.6h91.5v29.2Zm-85.8-5.7h80.1V814.3H692.6v17.8Z"/><path d="M305.8,970.5H282a2.9,2.9,0,0,1-2.9-2.9V949.2H260.7a2.9,2.9,0,0,1-2.9-2.9V922.5a2.82,2.82,0,0,1,2.9-2.8h18.4V901.3a2.88,2.88,0,0,1,2.9-2.8h23.8a2.88,2.88,0,0,1,2.9,2.8v18.4h18.4a2.88,2.88,0,0,1,2.9,2.8v23.8a2.9,2.9,0,0,1-2.9,2.9H308.7v18.4a2.9,2.9,0,0,1-2.9,2.9Zm-20.9-5.7H303V946.4a2.9,2.9,0,0,1,2.9-2.9h18.4V925.4H305.9a2.9,2.9,0,0,1-2.9-2.9V904.1H284.9v18.4a2.9,2.9,0,0,1-2.9,2.9H263.6v18.1H282a2.9,2.9,0,0,1,2.9,2.9v18.4Z"/><path d="M445.7,970.5H421.9a2.9,2.9,0,0,1-2.9-2.9V949.2H400.6a2.9,2.9,0,0,1-2.9-2.9V922.5a2.82,2.82,0,0,1,2.9-2.8H419V901.3a2.88,2.88,0,0,1,2.9-2.8h23.8a2.88,2.88,0,0,1,2.9,2.8v18.4H467a2.88,2.88,0,0,1,2.9,2.8v23.8a2.9,2.9,0,0,1-2.9,2.9H448.6v18.4a2.9,2.9,0,0,1-2.9,2.9Zm-20.9-5.7h18.1V946.4a2.9,2.9,0,0,1,2.9-2.9h18.4V925.4H445.8a2.9,2.9,0,0,1-2.9-2.9V904.1H424.8v18.4a2.9,2.9,0,0,1-2.9,2.9H403.5v18.1h18.4a2.9,2.9,0,0,1,2.9,2.9v18.4Z"/><path d="M235.9,767H212.1a2.9,2.9,0,0,1-2.9-2.9V745.7H190.8a2.9,2.9,0,0,1-2.9-2.9V719a2.9,2.9,0,0,1,2.9-2.9h18.4V697.7a2.9,2.9,0,0,1,2.9-2.9h23.8a2.9,2.9,0,0,1,2.9,2.9v18.4h18.4a2.9,2.9,0,0,1,2.9,2.9v23.8a2.9,2.9,0,0,1-2.9,2.9H238.8v18.4a2.9,2.9,0,0,1-2.9,2.9ZM215,761.4h18V743a2.88,2.88,0,0,1,2.9-2.8h18.4V722H235.9a2.9,2.9,0,0,1-2.9-2.9V700.7H215v18.4a2.9,2.9,0,0,1-2.9,2.9H193.7v18.1h18.4a2.88,2.88,0,0,1,2.9,2.8v18.5Z"/><path d="M235.9,902.9H212.1a2.9,2.9,0,0,1-2.9-2.9V881.6H190.8a2.9,2.9,0,0,1-2.9-2.9V854.9a2.88,2.88,0,0,1,2.9-2.8h18.4V833.7a2.88,2.88,0,0,1,2.9-2.8h23.8a2.88,2.88,0,0,1,2.9,2.8v18.4h18.4a2.88,2.88,0,0,1,2.9,2.8v23.8a2.9,2.9,0,0,1-2.9,2.9H238.8V900a3,3,0,0,1-2.9,2.9ZM215,897.2h18V878.8a2.9,2.9,0,0,1,2.9-2.9h18.4V857.8H235.9a2.9,2.9,0,0,1-2.9-2.9V836.5H215v18.4a2.9,2.9,0,0,1-2.9,2.9H193.7v18.1h18.4a2.9,2.9,0,0,1,2.9,2.9v18.4Z"/><path d="M585.6,970.5H561.8a2.9,2.9,0,0,1-2.9-2.9V949.2H540.5a2.9,2.9,0,0,1-2.9-2.9V922.5a2.82,2.82,0,0,1,2.9-2.8h18.4V901.3a2.88,2.88,0,0,1,2.9-2.8h23.8a2.88,2.88,0,0,1,2.9,2.8v18.4h18.4a2.88,2.88,0,0,1,2.9,2.8v23.8a2.9,2.9,0,0,1-2.9,2.9H588.5v18.4a2.9,2.9,0,0,1-2.9,2.9Zm-20.9-5.7h18.1V946.4a2.9,2.9,0,0,1,2.9-2.9h18.4V925.4H585.7a2.9,2.9,0,0,1-2.9-2.9V904.1H564.7v18.4a2.9,2.9,0,0,1-2.9,2.9H543.4v18.1h18.4a2.9,2.9,0,0,1,2.9,2.9v18.4Z"/><path d="M655.6,767H631.7a2.9,2.9,0,0,1-2.9-2.9V745.7H610.5a2.9,2.9,0,0,1-2.9-2.9V719a2.9,2.9,0,0,1,2.9-2.9h18.3V697.7a2.9,2.9,0,0,1,2.9-2.9h23.9a2.9,2.9,0,0,1,2.9,2.9v18.4h18.4a2.9,2.9,0,0,1,2.9,2.9v23.8a2.9,2.9,0,0,1-2.9,2.9H658.5v18.4a2.84,2.84,0,0,1-2.9,2.9Zm-21-5.6h18.1V743a2.88,2.88,0,0,1,2.9-2.8H674V722H655.6a2.9,2.9,0,0,1-2.9-2.9V700.7H634.6v18.4a2.9,2.9,0,0,1-2.9,2.9H613.4v18.1h18.3a2.88,2.88,0,0,1,2.9,2.8v18.5Z"/><path d="M655.6,902.9H631.7a2.9,2.9,0,0,1-2.9-2.9V881.6H610.5a2.9,2.9,0,0,1-2.9-2.9V854.9a2.88,2.88,0,0,1,2.9-2.8h18.3V833.7a2.88,2.88,0,0,1,2.9-2.8h23.9a2.88,2.88,0,0,1,2.9,2.8v18.4h18.4a2.88,2.88,0,0,1,2.9,2.8v23.8a2.9,2.9,0,0,1-2.9,2.9H658.5V900a2.9,2.9,0,0,1-2.9,2.9Zm-21-5.7h18.1V878.8a2.9,2.9,0,0,1,2.9-2.9H674V857.8H655.6a2.9,2.9,0,0,1-2.9-2.9V836.5H634.6v18.4a2.9,2.9,0,0,1-2.9,2.9H613.4v18.1h18.3a2.9,2.9,0,0,1,2.9,2.9v18.4Z"/><path d="M423.5,153.9a47.26,47.26,0,0,0,9.8,1.2,73.37,73.37,0,0,0,11.6-1.3l-2.7,38.6a22.49,22.49,0,0,0-8.6-1.9,21,21,0,0,0-8.3,1.8Z"/><path d="M238,199.9a22.46,22.46,0,0,0-7.4-1.4,31.07,31.07,0,0,0-7,.9s-8.7-27.6-3.2-40.7c4.1-9.7,24.5-12.2,42.3-12.9,23.2-.9,52.3.4,52.3.4a14.92,14.92,0,0,0-2.7,5.3c-.7,2.8-1.1,5.2-1.1,5.2s-25.8-1.7-37.2-1-29.6,2.6-34.6,7.5c-4.2,4.1-5,9.8-4.1,17.1C236.2,188.6,238,199.9,238,199.9Z"/><path d="M338.3,195.3a24.9,24.9,0,0,0-5.1-.6,23.2,23.2,0,0,0-12.3,3.8s-9.3-34.3-2.9-48.1c3.7-8.1,20.2-10.5,43.4-9.7s57.1,12.1,57.1,12.1v6.1s-28.4-7.8-47.9-8.5c-21.2-.6-27.1.9-30.7,4.8-4.4,4.9-4.3,14-3.8,20C336.8,183.4,338.3,195.3,338.3,195.3Z"/><path d="M630.7,199.8a22.46,22.46,0,0,1,7.4-1.4,24.67,24.67,0,0,1,6.9,1.1s8.8-27.8,3.3-40.8c-4.1-9.7-24.5-12.2-42.3-12.9-23.1-.9-52.7.4-52.7.4a14.92,14.92,0,0,1,2.7,5.3c.7,2.8,1.1,5.2,1.1,5.2s26.1-1.6,37.5-.9,29.6,2.6,34.6,7.5c4.2,4.1,5,9.8,4.1,17.1C632.4,188.6,630.7,199.8,630.7,199.8Z"/><path d="M530.8,194.9a21.55,21.55,0,0,1,5.1-.7,22.65,22.65,0,0,1,12.2,3.8s8.9-33.9,2.6-47.7c-3.7-8.1-20.2-10.5-43.4-9.7s-57.1,12-57.1,12l-.1,6.1s28.5-7.8,48-8.4c21.2-.6,27.2.9,30.7,4.8,4.4,4.9,4.4,14.5,4.1,20.6A192.28,192.28,0,0,1,530.8,194.9Z"/><path d="M382.2,311.8H628.4l23-104.3c-4.9-3.1-13.1-3.7-13.1-3.7s-9.8-1.1-13.4,6.4c-4.4,9.3,7.1,19.2,7.1,19.2l-5.8,7.8s-7.9-11.5-16.5-13.5c-3.8-.8-11,2.2-11,16,0,11.5,2.7,16.1,9.7,15.8,7.6-.3,19.5-13.5,19.5-13.5l3.4,7.3-12.9,25.4s-13.1,5.6-33.1,5.3c-30.3-.4-33.1-5.7-33.1-5.7l-12.7-25,3.4-7.3s11.6,12.7,19.2,13.5c6.9.8,10-4.5,10-15.8,0-12.8-6.4-17-11.4-15.9-7.9,1.6-16.2,13.3-16.2,13.3l-5.8-7.7s11.6-9.5,10.6-17.8C548,200.3,534,200,534,200s-12.2.2-15.2,9.5c-3.1,9.5,10.2,19.9,10.2,19.9l-5.9,7.7s-8.3-12-16.8-13.5c-2.7-.4-10.8,1.2-10.7,16.8,0,10.8,3.1,15.4,9.8,15.1,7.6-.4,19.5-13.5,19.5-13.5l3.4,7.3-12.7,25.1s-2.9,5.7-30.7,5.7l-.6.1c-27.9.3-31-4.2-31-4.2l-15-28,4.1-7.3s11.2,13.9,18.7,14.1c7,.3,11.6-4.5,12.3-15.5.9-13.6-7-18.8-12.1-17.7-7.8,1.7-18.7,13.4-18.7,13.4l-4.2-7s13.7-12.9,10.3-22.5c-3.2-9-15-9.1-15-9.1s-12.2.9-14.9,9.1c-3.3,9.6,10.1,22.5,10.1,22.5l-4.3,7s-11.9-12.7-19.5-13.4c-5.2-.5-11.7,5.6-11.4,16,.4,13,5.3,17.5,12.3,17.3,7.6-.3,19-14.3,19-14.3l3.9,7.3-14.7,27.8s-.2,4.4-31.9,4.4c-27.8,0-30.7-5.7-30.7-5.7l-12.7-25.1,3.4-7.3s12,13.1,19.5,13.5c6.7.3,9.7-4.3,9.8-15.1.1-15.6-8-17.2-10.7-16.8-8.5,1.5-16.9,13.5-16.9,13.5l-5.9-7.7s13.2-10.4,10.2-19.9c-3-9.3-15.2-9.5-15.2-9.5s-14,.4-15.3,11.6c-1,8.3,10.6,17.8,10.6,17.8l-5.8,7.7s-8.3-11.7-16.2-13.3c-5.1-1.1-11.4,3.1-11.4,15.9,0,11.3,3.1,16.6,10,15.8,7.6-.8,19.2-13.5,19.2-13.5l3.4,7.3-12.7,25s-2.8,5.3-33.1,5.7c-20,.3-33.1-5.3-33.1-5.3l-12.8-25.4,3.3-7.3s12,13.2,19.5,13.5c7,.3,9.7-4.3,9.7-15.8,0-13.8-7.2-16.8-11-16-8.7,2-16.5,13.5-16.5,13.5l-5.5-7.8s11.5-9.8,7.1-19.2c-3.6-7.5-13.4-6.4-13.4-6.4s-8.2.6-13.2,3.7l23.5,104.3H485.6"/><path d="M434.4,147.8A36.4,36.4,0,1,0,398,111.4,36.4,36.4,0,0,0,434.4,147.8Z"/><path d="M434.4,150.7a39.2,39.2,0,1,1,39.2-39.2,39.26,39.26,0,0,1-39.2,39.2Zm0-72.8a33.5,33.5,0,1,0,33.5,33.5,33.5,33.5,0,0,0-33.5-33.5Z"/><path d="M491.9,848.8l-7,6.1h7Z"/><path d="M382.2,854.9c-2.1-1.8-4.2-3.7-6.4-5.6v5.6Z"/><path d="M561.9,776.2c-3.1,3.7-6.1,7.4-9.2,10.9h9.2Z"/><path d="M314.4,787.1c-2.9-3.3-5.7-6.7-8.6-10.2v10.2Z"/><path d="M234.7,678.9H210.9A2.9,2.9,0,0,1,208,676V652.1a2.82,2.82,0,0,1,2.9-2.8h17.5A2.87,2.87,0,0,1,231,651c2,4.7,4.1,9.2,6.3,13.7l.3,11.3a2.9,2.9,0,0,1-2.9,2.9Zm-21-5.7h18.1V666a114.89,114.89,0,0,1-5.3-11H213.7v18.2Z"/><path d="M655.3,678.9H631.4a2.9,2.9,0,0,1-2.9-2.9v-8c2.8-6.4,5.2-11.7,7.5-17a3,3,0,0,1,2.6-1.7h16.6a2.88,2.88,0,0,1,2.9,2.8V676a2.76,2.76,0,0,1-2.8,2.9Zm-21.1-5.7h18.2V655H640.5c-2.1,4.8-4.3,9.6-6.6,14.3l.3,3.9Z"/><path d="M305.8,835H282a2.9,2.9,0,0,1-2.9-2.9V813.7H260.7a2.9,2.9,0,0,1-2.9-2.9V787a2.82,2.82,0,0,1,2.9-2.8h18.4V765.8A2.88,2.88,0,0,1,282,763h14.9a2.66,2.66,0,0,1,2.2,1.1c2.9,3.7,5.9,7.4,8.8,11a2.79,2.79,0,0,1,.6,1.8v7.4h5.7a2.84,2.84,0,0,1,2.2,1c4.2,4.9,8.4,9.6,12.6,14.2a2.64,2.64,0,0,1,.7,1.9v9.5a2.9,2.9,0,0,1-2.9,2.9H308.4v18.4a2.43,2.43,0,0,1-2.6,2.8Zm-20.9-5.7H303V810.9a2.88,2.88,0,0,1,2.9-2.8h18.4v-5.6c-3.7-4-7.4-8.2-11.1-12.5h-7.3a2.9,2.9,0,0,1-2.9-2.9V778c-2.5-3-4.9-6.1-7.4-9.2H284.9v18.4a2.9,2.9,0,0,1-2.9,2.9H263.6v18.1H282a2.88,2.88,0,0,1,2.9,2.8v18.3Z"/><path d="M375.8,902.9H352a2.9,2.9,0,0,1-2.9-2.9V881.6H330.7a2.9,2.9,0,0,1-2.9-2.9V854.9a2.88,2.88,0,0,1,2.9-2.8h18.4V833.7a2.88,2.88,0,0,1,2.9-2.8h6.8a3.18,3.18,0,0,1,2,.8c5.8,5.6,11.5,10.8,17,15.6a2.81,2.81,0,0,1,1,2.1v2.8h3.5a2.81,2.81,0,0,1,1.9.7c5.2,4.5,10.1,8.6,14.8,12.4a2.57,2.57,0,0,1,1,2.2v11.4a2.9,2.9,0,0,1-2.9,2.9H378.7V900a2.9,2.9,0,0,1-2.9,2.9Zm-21-5.7h18.1V878.8a2.9,2.9,0,0,1,2.9-2.9h18.4v-7.2c-4.1-3.4-8.5-7-13.1-10.9h-5.3a2.9,2.9,0,0,1-2.9-2.9v-4.3c-4.9-4.4-10.1-9.1-15.3-14.1h-2.8v18.4a2.9,2.9,0,0,1-2.9,2.9H333.5v18.1h18.4a2.9,2.9,0,0,1,2.9,2.9v18.4Z"/><path d="M220,633.6h-7.9a2.9,2.9,0,0,1-2.9-2.9V612.3H190.8a2.9,2.9,0,0,1-2.9-2.9V585.6a2.9,2.9,0,0,1,2.9-2.9h16.9a2.88,2.88,0,0,1,2.8,2.2,430.22,430.22,0,0,0,12.2,44.7,2.68,2.68,0,0,1-.4,2.6,2.47,2.47,0,0,1-2.3,1.4Zm-26.3-26.9h16.2c-1.5-5.8-3-11.8-4.4-18.1H193.8v18.1Z"/><path d="M515.7,902.9H491.9A2.9,2.9,0,0,1,489,900V881.6H470.6a2.9,2.9,0,0,1-2.9-2.9V866.8a2.79,2.79,0,0,1,1.1-2.2c4.4-3.6,9.2-7.6,14.2-11.9a3.16,3.16,0,0,1,1.9-.7h4.2v-3.3a2.81,2.81,0,0,1,1-2.1c5.2-4.6,10.7-9.7,16.3-15a2.79,2.79,0,0,1,2-.8h7.3a2.88,2.88,0,0,1,2.9,2.8V852H537a2.8,2.8,0,0,1,2.8,2.8v23.8a2.88,2.88,0,0,1-2.8,2.9H518.6V900a2.9,2.9,0,0,1-2.9,2.9Zm-20.9-5.7h18V878.8a2.9,2.9,0,0,1,2.9-2.9h18.4V857.8H515.7a2.9,2.9,0,0,1-2.9-2.9V836.5h-3.3q-7.65,7.2-14.7,13.5v4.8a2.9,2.9,0,0,1-2.9,2.9h-6c-4.3,3.7-8.5,7.2-12.4,10.4v7.7h18.4a2.9,2.9,0,0,1,2.9,2.9v18.5Z"/><path d="M585.6,835H561.8a2.9,2.9,0,0,1-2.9-2.9V813.7H540.5a2.9,2.9,0,0,1-2.9-2.9V800.7a3.16,3.16,0,0,1,.7-1.9c4-4.4,8-8.9,12-13.6a2.87,2.87,0,0,1,2.2-1h6.3v-8.1a2.57,2.57,0,0,1,.7-1.8c2.7-3.4,5.5-6.8,8.2-10.3a2.84,2.84,0,0,1,2.3-1.1h15.5a2.88,2.88,0,0,1,2.9,2.8v18.4h18.4a2.88,2.88,0,0,1,2.9,2.8v23.8a2.9,2.9,0,0,1-2.9,2.9H588.4V832a2.73,2.73,0,0,1-2.8,3Zm-20.9-5.7h18.1V810.9a2.88,2.88,0,0,1,2.9-2.8h18.4V790H585.7a2.9,2.9,0,0,1-2.9-2.9V768.7H571.5c-2.3,2.9-4.5,5.7-6.8,8.5v9.9a2.9,2.9,0,0,1-2.9,2.9h-7.9c-3.5,4.1-7,8-10.5,11.9v6.2h18.4a2.88,2.88,0,0,1,2.9,2.8v18.4Z"/><path d="M655.6,633.7H647a2.89,2.89,0,0,1-2.7-3.8,402.72,402.72,0,0,0,12.2-44.8,2.8,2.8,0,0,1,2.8-2.2h17.5a2.9,2.9,0,0,1,2.9,2.9v23.8a2.9,2.9,0,0,1-2.9,2.9H658.4v18.4a2.68,2.68,0,0,1-2.8,2.8Zm1.6-26.9H674V588.7H661.6c-1.4,6.2-2.9,12.3-4.4,18.1Z"/><path d="M433.5,897.6l-1.5-.9c-1.4-.9-140.8-90.1-207.9-247.1-42.7-99.7-46.3-334.8-46.4-337.1v-2.9H689.4v2.9c0,2.4-3.7,237.4-46.3,337.1C576,806.6,436.6,895.8,435.2,896.7l-1.7.9Zm-250-582.3c.6,27.3,6.2,239.4,45.8,332.1C292,793.9,418.2,880.8,433.5,890.9c15.3-10.1,141.6-97,204.2-243.5,39.7-92.7,45.3-304.7,45.8-332.1Z"/><path d="M430.9,386.6l-18.8-2a27.85,27.85,0,0,1-9.5-2.9c-1.6-.2-3.1,2.2-2.6,3.6a49.08,49.08,0,0,0,11.4,3.6l22.6,1.9Z"/><path d="M218.4,331.6s-1.8,26.4,2.4,43.1c4.5,17.7,16.8,42.4,16.8,42.4s6.4-7.7,19.6-20A39.68,39.68,0,0,1,286,386.4l23-.1v-23H285.8s-22.4-.9-35-8.6C237.6,346.8,218.4,331.6,218.4,331.6Z"/><path class="cls-1" d="M454.9,365.9a5.16,5.16,0,0,1,1.1.2c1.8.3,4.1.8,6.7,1.2"/><path d="M444.2,68.9V41.3h21V22.7H443.8V0H424.6V22.8H403.2V41.4h21V69a41.53,41.53,0,0,1,10-1.3A45.64,45.64,0,0,1,444.2,68.9Z"/><path d="M312.8,181.3a168.13,168.13,0,0,0-35.1,10.9,143.68,143.68,0,0,0-30.2,17.2s1.2,4,.6,7a149.44,149.44,0,0,1,33.1-19.5,184.7,184.7,0,0,1,32.4-10Z"/><path d="M340.9,177.6l.6,5.7s40.1-4.4,77.8-4.9l-.1-5.5C396.9,173.1,356.5,175.7,340.9,177.6Z"/><path d="M555.6,181.6A150,150,0,0,1,591,192.1c18.5,7.9,28.5,15.9,28.5,15.9a14.09,14.09,0,0,0-1.2,6.5,136.41,136.41,0,0,0-30.9-17.7,167.15,167.15,0,0,0-32.8-9.7Z"/><path d="M527.6,177.7l-.6,5.7s-40.9-4.3-78.6-4.8l.4-5.7C471.1,173.1,512,175.8,527.6,177.7Z"/><path d="M455.8,370.7c.5.1,4.3.6,5.3.3s1.5-3.4,1.5-3.4l-7.9-1.3S455.1,370.5,455.8,370.7ZM636.9,517s-10,2.4-17.2-.8c-2.1-1-11-3.1-12.4-2.9a50.5,50.5,0,0,0-12,2.2s7.3-13.6,25.6-30,43-50.4,35.9-81.1-23.8-40.6-45.1-40.3c-23.5.3-36.1,6.5-43.5,24.4-3,7-1,13.8-3.2,22.4-.2,1-5,8.7-9.7,15.1-3.9,5.4-10.5,25.3-10.5,25.3l2.6-.5,17.9-18.2,1.2,10.4s-8.5,11-20.2,25.7c-7.5,9.5-18.3,31.1-20.6,39l4.8-1s9.1-13.3,34.5-32.1c8.2-6.1,22.1-15.3,24.9-24.6s.6-19.4.6-19.4A32.51,32.51,0,0,1,600,445a38.48,38.48,0,0,1,1.2,16.3s8-21.2,6.4-32.8c-2.4-17.3-6.8-21-15-23.1-2-.5-9.4-.7-9.4-.7s-5.8-19.8,13.8-26.2c13.7-4.5,30.2-5.2,41.3,13.3,11.8,19.5,5.5,42.8-4,54.6-10.2,12.5-28.4,29.5-61.9,52.6-24.2,16.6-44.2,38.5-41.1,61.7,4,29.6,28.3,64.8,40.1,82.7s17.7,39.6,6.9,55c-10.2,14.5-34.4,20.7-50.1,9.5-12.8-9.2-28.1-34.5-40.8-69.1-10.4-28.4-23.3-44.3-23.3-44.3l2.3-97.5,7,3.3s.9-9.7,3.7-17.2c3.7-9.8,16.4-26.5,24.1-45.4s7.6-45.5,7.6-45.5a54.27,54.27,0,0,0,8.2-9l.3-9-7.8-5.1.2-.1,15-22.9c-2.7-1.2-9.4,2.1-9.4,2.1s-6.4-7.8-10.3-.4c-3,6,3.1,7.7,3.1,7.7l-2.9,4.2-16.1-4.1-1.3-5.9s7.3,4.9,9.3-2.6c1.8-6.7-6.3-6.2-6.3-6.2s2.5-4.7-4.4-6.6c-6.7-1.9-6.8,3.8-6.8,3.8s-7-4.6-8.6,2.2c-1.5,6.5,5.7,6.6,5.7,6.6l-4.5,4.8L457,348.8l-1.8-5.5s8.6,0,7.4-6.9c-1.4-8.1-9.5-3.6-9.5-3.6s-2.3-5-7.3-3.6l2.4,24.3,53.7,12.6-6.1,2.3-48.9-11.3L430.3,369l1.7,12.8,7.9,10-6.7,11.1,25.4,2.5-2.8,6.6s-11.7,1.2-31.4,6.2c-5.2,1.3-37.8,23.5-46.8,32-5.2,5-8.3,12.8-8.3,12.8l-37.7-19.5-2-7.7-8.5,2.3-9-5.3s8.1-9.5,11.8-19.5c2.8-7.7-2.1-18.8-2.1-18.8l-3.3-2.1-.4,13.9-9.2,3.4-5.7,15.1-2.9-2V351.4H287.7v63.9s-1.1-1.7-10-2.6a32.31,32.31,0,0,0-16.3,2.9l-2.9,3.5,14.1,1.8,2.5,9.2,12.5,3.4v7.8s-5.5-1.4-12.9,4.9a38.16,38.16,0,0,0-11,17.1l.9,3.8c2.2-2.5,6.3-9.2,8.1-8.8,5.3,1.2,6.4,1.5,10.1,3.7l4.8-4.1v98.4s-7.1-2.5-12.1-.8c-3,.9-6.5,1.5-8.8,2.8l-2.1,4.1s9.5-2.4,13,.7c2.9,2.6,1.6,5,3.1,7.6.8,1.4,4.3,2.7,5.4,4.5l-.2,15.9-7.3,12.4-.7,6.6,9.7-8v34.3h12.6v-32l5.5.8,15.9-17.7s8.8.1,10.9,4.3c1.4,2.7.5,7.8,2.2,10,1.7.9,3.3,1.6,3.3,1.6l82.4-98.8-33.8,40.6,6.4,17.1,16,17.6,5.3,32.1-40.7,19.2s-3.6,9-6.4,25.4-4.5,29-4.5,29l3.3,13.6L316.7,694l-3.6-13.2a81.33,81.33,0,0,0,10.7-16.9c4.5-9.7-.9-22.4-.9-22.4l-3.1-3.6-1.2,14.7-8.4,1.9-2,15.4-4.7-.4a35.27,35.27,0,0,0-13.4-15.9A28.77,28.77,0,0,0,269,650l-1.9,2.4,14.5,4.3-2.3,9.8,16.7,6.8-2.1,3.7-15.2,2.6-1.8,5.3-14.3-.7,1.5,2.6a27.93,27.93,0,0,0,17.3,5.9,33.48,33.48,0,0,0,17.5-4.6l6.2,15.5-7.7,7.8,2.4,2.8,7.1-.8,55,11.5,10.4,8.9,18-8.1s-.1-8.8,3.5-13.7c2.2-3.2,6.5-8.9,9.3-12.7-.5-.9-8.5-15-9.9-18-4-8.4-4.4-30.1-3.7-33.7,2.1-9.9,32.5-35.7,32.5-35.7l8.5-17.5,3.8,1.7-8.5,18.7c-19.5,15.1-31.4,30.1-32.1,34.3-.4,2.6-.3,23.2,3.6,30.6,1.6,3.1,8.7,15.9,8.7,15.9a165.37,165.37,0,0,0,19.2,21.6c11.4,10.7,16.8,17.6,19.1,27.2,3.7,15.2,5.1,38.2,4.8,55.6-.1,7.1.1,13.3.1,13.3l-12,2.8s-9.3-16.8-13.8-18.8c-9.5-4.2-17.6-7.4-17.6-7.4l-4,1.4,10.4,8.6L411,812.7l16.7,10.4s-9.3,3.7-14,3.7c-9.9,0-17.6,16.1-17.6,16.1l-.2,3.3,10.8-5.8,9.3,5,14.1-11.8L433,836s-2.5,10.5-.9,18.9,7.8,16.7,7.8,16.7l4.3.7-3.9-15.5,8.9-7.7-4-14.3,12.7-8.9,11.7,9.1,1.7-1.9c-2.4-21.4,4.2-71.2,4.2-71.2s5.8-5.7,6.3-10.5c.4-4,.4-13.9-.6-17.1-3-2.9-5.7-10.8-5.7-10.8a179.67,179.67,0,0,1-3.5-47.2c.4-5.8.5-11.2.4-16.2,3,5.2,15.8,26.8,27.1,40.5,20,24.2,43.9,29,57.7,24.9,53.2-15.6,40.3-65.6,40.3-65.6-20.4-50.6-16.6-58.7-16.6-58.7l34.9-14.9-.7-2.3-13,.6-15.2-3.1h-9.7l-.2-5.3,50.1-22.3-.8-2.8-9.6,1.1-20.1-4.4L579,551.5l1.9-8.8ZM505.7,374.8l4.4,2.2-.3,4.9-5.4,4.8-1.4-5.4-3.8-4.1ZM300.6,590.3V576s9.4-.8,9.7,4.8C310.6,586,300.6,590.3,300.6,590.3Zm31.3-18.6-9.5-6.4-.3-22.3-12-19.5-4.4.3,5.9,12.1-5.9,10.5,5.4,13.6-4.3,4.2-7.6-9.3V443.8l10,5.5-3.5,6.7,5.8,4.2,4.8-1.8,47.5,35.8-3.1,11.2,14.3-1.3Zm67.2-117.8C395.4,455.8,382,480,382,480l-3.8-1.9c2.3-4.5,14.1-25.2,18.7-27.8,4.2-2.4,20.1-4,29.8-4.9l.3,4C426.9,449.5,404.3,451.2,399.1,453.9ZM442,368l9.1-6.4,29.1,6.3,1.2,4.7c-3.4-1.6-14.4-4.1-14.4-4.1-1.4,5.3-3.6,5.8-4.7,6.4-.7.3-5.5.7-7.9-.3-3.4-1.6-3.5-7.8-3.5-7.8a17.47,17.47,0,0,0-7,3.7Zm4.9,24.3-2.3-7.1,20.6,2.3,1.6,7.2Z"/></g></g></svg>